# xmcd
#
# Track frame offsets:
#	150
#	13120
#	26120
#	48482
#	69450
#	91140
#	106900
#	123657
#	142182
#	155435
#	170065
#	186982
#	205212
#	223992
#	256075
#	281562
#	297742
#
# Disc length: 4215 seconds
#
# Revision: 4
# Processed by: cddbd v1.5.2PL0 Copyright (c) Steve Scherf et al.
# Submitted via: EZCDAudioConverter 2.3.5.1
#
DISCID=11107511
DTITLE=Stevie Wonder - Ballad Collection
DYEAR=1999
DGENRE=Funk/Soul/R&B
TTITLE0=You Are The Sunshine Of My Love
TTITLE1=My Cherie Amour
TTITLE2=Golden Lady
TTITLE3=You And I
TTITLE4=If Ever
TTITLE5=Too Shy To Say
TTITLE6=All In Love Is Fair
TTITLE7=For Your Love
TTITLE8=Never Dreamed You'd Leave In Summer
TTITLE9=If It's Magic
TTITLE10=Overjoyed
TTITLE11=Send One Your Love
TTITLE12=Kiss Lonely Good-Bye
TTITLE13=Love's In Need Of Love Today
TTITLE14=Ribbon In The Sky
TTITLE15=Stay Gold
TTITLE16=Lately
EXTD=
EXTT0=
EXTT1=
EXTT2=
EXTT3=
EXTT4=
EXTT5=
EXTT6=
EXTT7=
EXTT8=
EXTT9=
EXTT10=
EXTT11=
EXTT12=
EXTT13=
EXTT14=
EXTT15=
EXTT16=
PLAYORDER=
